<svg width="156" height="177" viewBox="0 0 156 177" fill="none" xmlns="http://www.w3.org/2000/svg">
    <path
        d="M127 111.499C194 106.5 129.537 24.4691 82.3954 1.00685C50.7969 -10.357 -17.9352 102.063 5.27617 136.749C28.4875 171.434 45.1958 117.604 127 111.499Z"
        fill="#ECF4FF" fill-opacity="0.6" />
    <path
        d="M142.51 57.3936C142.51 56.1494 143.515 55.1408 144.755 55.1408C145.995 55.1408 147 56.1494 147 57.3936C147 58.6378 145.995 59.6465 144.755 59.6465C143.515 59.6465 142.51 58.6378 142.51 57.3936Z"
        fill="#F1B357" />
    <path
        d="M126.831 57.3936C126.831 56.1494 127.836 55.1408 129.075 55.1408C130.315 55.1408 131.32 56.1494 131.32 57.3936C131.32 58.6378 130.315 59.6465 129.075 59.6465C127.836 59.6465 126.831 58.6378 126.831 57.3936Z"
        fill="#F1B357" />
    <path
        d="M110.393 57.3936C110.393 56.1494 111.398 55.1408 112.638 55.1408C113.878 55.1408 114.883 56.1494 114.883 57.3936C114.883 58.6378 113.878 59.6465 112.638 59.6465C111.398 59.6465 110.393 58.6378 110.393 57.3936Z"
        fill="#F1B357" />
    <path
        d="M142.51 41.3223C142.51 40.0781 143.515 39.0695 144.755 39.0695C145.995 39.0695 147 40.0781 147 41.3223C147 42.5665 145.995 43.5752 144.755 43.5752C143.515 43.5752 142.51 42.5665 142.51 41.3223Z"
        fill="#F1B357" />
    <path
        d="M126.831 41.3223C126.831 40.0781 127.836 39.0695 129.075 39.0695C130.315 39.0695 131.32 40.0781 131.32 41.3223C131.32 42.5665 130.315 43.5752 129.075 43.5752C127.836 43.5752 126.831 42.5665 126.831 41.3223Z"
        fill="#F1B357" />
    <path
        d="M111.166 41.3223C111.166 40.0781 112.172 39.0695 113.411 39.0695C114.651 39.0695 115.656 40.0781 115.656 41.3223C115.656 42.5665 114.651 43.5752 113.411 43.5752C112.172 43.5752 111.166 42.5665 111.166 41.3223Z"
        fill="#F1B357" />
    <path
        d="M142.51 25.251C142.51 24.0068 143.515 22.9982 144.755 22.9982C145.995 22.9982 147 24.0068 147 25.251C147 26.4953 145.995 27.5039 144.755 27.5039C143.515 27.5039 142.51 26.4953 142.51 25.251Z"
        fill="#F1B357" />
    <path
        d="M126.831 25.251C126.831 24.0068 127.836 22.9982 129.075 22.9982C130.315 22.9982 131.32 24.0068 131.32 25.251C131.32 26.4953 130.315 27.5039 129.075 27.5039C127.836 27.5039 126.831 26.4953 126.831 25.251Z"
        fill="#F1B357" />
    <path
        d="M111.166 25.251C111.166 24.0068 112.172 22.9982 113.411 22.9982C114.651 22.9982 115.656 24.0068 115.656 25.251C115.656 26.4953 114.651 27.5039 113.411 27.5039C112.172 27.5039 111.166 26.4953 111.166 25.251Z"
        fill="#F1B357" />
    <path
        d="M95.4321 25.251C95.4321 24.0068 96.4372 22.9982 97.677 22.9982C98.9168 22.9982 99.9219 24.0068 99.9219 25.251C99.9219 26.4953 98.9168 27.5039 97.677 27.5039C96.4372 27.5039 95.4321 26.4953 95.4321 25.251Z"
        fill="#F1B357" />
    <path
        d="M126.831 9.25202C126.831 8.00781 127.836 6.99921 129.075 6.99921C130.315 6.99921 131.32 8.00781 131.32 9.25202C131.32 10.4962 130.315 11.5049 129.075 11.5049C127.836 11.5049 126.831 10.4962 126.831 9.25202Z"
        fill="#F1B357" />
    <path
        d="M111.166 9.25202C111.166 8.00781 112.172 6.99921 113.411 6.99921C114.651 6.99921 115.656 8.00781 115.656 9.25202C115.656 10.4962 114.651 11.5049 113.411 11.5049C112.172 11.5049 111.166 10.4962 111.166 9.25202Z"
        fill="#F1B357" />
    <path
        d="M95.4321 9.25202C95.4321 8.00781 96.4372 6.99921 97.677 6.99921C98.9168 6.99921 99.9219 8.00781 99.9219 9.25202C99.9219 10.4962 98.9168 11.5049 97.677 11.5049C96.4372 11.5049 95.4321 10.4962 95.4321 9.25202Z"
        fill="#F1B357" />
    <g>
        <path
            d="M82.4767 90.4242C100.926 90.4242 115.882 75.498 115.882 57.0856C115.882 38.6733 100.926 23.7471 82.4767 23.7471C64.027 23.7471 49.0703 38.6733 49.0703 57.0856C49.0703 75.498 64.027 90.4242 82.4767 90.4242Z"
            fill="#387ED1" />
        <path fill-rule="evenodd" clip-rule="evenodd"
            d="M142.867 158.836H22.1298C22.1298 125.579 49.1507 98.5967 82.4906 98.5967C115.846 98.5967 142.867 125.579 142.867 158.836Z"
            fill="#387ED1" />
    </g>
    <path
        d="M26.5554 175.8C35.4356 175.8 42.6345 168.815 42.6345 160.2C42.6345 151.584 35.4356 144.6 26.5554 144.6C17.6753 144.6 10.4766 151.584 10.4766 160.2C10.4766 168.815 17.6753 175.8 26.5554 175.8Z"
        fill="#F1B357" />
    <path d="M35.2109 133.8V141.817" stroke="white" stroke-width="1.5" stroke-miterlimit="1.5" stroke-linecap="round"
        stroke-linejoin="round" />
    <path d="M48.3621 138.953L41.25 144.966" stroke="white" stroke-width="1.5" stroke-miterlimit="1.5"
        stroke-linecap="round" stroke-linejoin="round" />
    <path d="M52.5084 151.552H44.2109" stroke="white" stroke-width="1.5" stroke-miterlimit="1.5" stroke-linecap="round"
        stroke-linejoin="round" />
    <path d="M19 159.737L24.4294 165L35 156" stroke="white" stroke-width="2" stroke-miterlimit="1.5"
        stroke-linecap="round" stroke-linejoin="round" />
    
</svg>